<?xml version="1.0" encoding="UTF-8"?>
<svg version="1.1" xmlns="http://www.w3.org/2000/svg" width="500" height="500">
<path d="M0 0 C0.11792821 3.14550813 0.18781383 6.29043541 0.25 9.4375 C0.28351563 10.31599609 0.31703125 11.19449219 0.3515625 12.09960938 C0.47055074 20.1610627 -1.47846946 26.65673379 -7.125 32.5625 C-10 35 -10 35 -12 35 C-12 35.66 -12 36.32 -12 37 C-13.07894531 37.46148437 -14.15789062 37.92296875 -15.26953125 38.3984375 C-24.51201542 42.40250705 -33.50708937 46.69732757 -42.36450195 51.49755859 C-56.26179469 59 -56.26179469 59 -60 59 C-60 59.66 -60 60.32 -60 61 C-60.804375 61.763125 -61.60875 62.52625 -62.4375 63.3125 C-65.15526772 66.16284175 -65.45488901 67.25941082 -66 71 C-56.73547175 67.00977936 -47.61234181 62.93191161 -38.76635742 58.07666016 C-32.89362742 54.8781684 -26.86183144 52.05651259 -20.80102539 49.23486328 C-15.39944625 46.70618149 -10.18402742 44.00459829 -5.03125 40.99609375 C-3 40 -3 40 0 40 C0.1173794 43.49971199 0.18763961 46.99890955 0.25 50.5 C0.28351563 51.48226562 0.31703125 52.46453125 0.3515625 53.4765625 C0.47958898 63.07854856 -2.55522052 69.05946825 -9 76 C-12 78 -12 78 -15 78 C-15 78.66 -15 79.32 -15 80 C-15.57363281 80.25652344 -16.14726562 80.51304687 -16.73828125 80.77734375 C-29.82812636 86.67671249 -42.89353199 92.64614732 -55.45605469 99.61254883 C-59.79954149 102 -59.79954149 102 -62 102 C-62 102.66 -62 103.32 -62 104 C-62.66 104 -63.32 104 -64 104 C-64.66 106.97 -65.32 109.94 -66 113 C-64.515 112.01 -64.515 112.01 -63 111 C-61.68 111 -60.36 111 -59 111 C-59 110.34 -59 109.68 -59 109 C-56.09399739 107.74335022 -54.20395416 107 -51 107 C-51 106.34 -51 105.68 -51 105 C-50.2471875 104.6596875 -49.494375 104.319375 -48.71875 103.96875 C-42.54351096 101.15092248 -36.4334018 98.24666295 -30.375 95.1875 C-24.18361515 92.06469592 -17.95235504 89.03523747 -11.6875 86.0625 C-10.86878418 85.67280029 -10.05006836 85.28310059 -9.20654297 84.8815918 C-8.44100098 84.51976807 -7.67545898 84.15794434 -6.88671875 83.78515625 C-6.20826904 83.46426025 -5.52981934 83.14336426 -4.83081055 82.81274414 C-3 82 -3 82 0 81 C0.117791 84.31219232 0.18777155 87.62383492 0.25 90.9375 C0.28351563 91.86369141 0.31703125 92.78988281 0.3515625 93.74414062 C0.44482059 100.38877956 -0.80522208 105.17322212 -4 111 C-4.66 111 -5.32 111 -6 111 C-6.99 112.98 -6.99 112.98 -8 115 C-8.66 115 -9.32 115 -10 115 C-10 115.66 -10 116.32 -10 117 C-13 119 -13 119 -17 119 C-17 119.66 -17 120.32 -17 121 C-17.69609375 121.26554687 -18.3921875 121.53109375 -19.109375 121.8046875 C-22.24466559 123.10117253 -25.22690185 124.58479597 -28.25 126.125 C-33.82535599 128.93571042 -39.42703843 131.68673582 -45.0625 134.375 C-45.77631836 134.72062988 -46.49013672 135.06625977 -47.22558594 135.42236328 C-50.80461127 137.11853958 -54.03288767 138.45867863 -58 139 C-58 139.66 -58 140.32 -58 141 C-59.65002828 142.35386936 -61.3174387 143.68678142 -63 145 C-63.495 145.99 -63.495 145.99 -64 147 C-64.66 147 -65.32 147 -66 147 C-66.33 150.3 -66.66 153.6 -67 157 C-70 157 -70 157 -71.5 155.53125 C-77.3084187 147.66568301 -80.14055894 140.91652637 -79 131 C-77.60520219 124.65366998 -74.06774616 119.94974937 -70 115 C-70.66 115 -71.32 115 -72 115 C-72.79550392 113.60635 -73.58621838 112.20996569 -74.375 110.8125 C-74.81585938 110.03519531 -75.25671875 109.25789063 -75.7109375 108.45703125 C-79.36621604 101.48984882 -80.24663005 95.00813808 -78.32421875 87.28515625 C-77.61449072 85.15597215 -76.85976671 83.07265188 -76 81 C-75.34 81 -74.68 81 -74 81 C-73.87625 80.401875 -73.7525 79.80375 -73.625 79.1875 C-73 77 -73 77 -71 74 C-71.495 73.38125 -71.99 72.7625 -72.5 72.125 C-74 70 -74 70 -74 68 C-74.66 68 -75.32 68 -76 68 C-78.88425067 60.89238227 -80.66715542 53.92636916 -78.1328125 46.4375 C-77.16695214 44.23787642 -76.13557273 42.11608733 -75 40 C-74.67 39.34 -74.34 38.68 -74 38 C-73.34 38 -72.68 38 -72 38 C-72 37.34 -72 36.68 -72 36 C-71.34 36 -70.68 36 -70 36 C-70 35.34 -70 34.68 -70 34 C-64.93626332 31.11008967 -59.81447881 28.34537175 -54.625 25.6875 C-53.62726563 25.17574219 -52.62953125 24.66398437 -51.6015625 24.13671875 C-49 23 -49 23 -46 23 C-46 22.34 -46 21.68 -46 21 C-44.989375 20.67 -43.97875 20.34 -42.9375 20 C-38.0898612 18.18533029 -33.61499646 15.73101693 -29.07641602 13.26904297 C-24.2166729 10.63640675 -19.31783376 8.09813314 -14.375 5.625 C-13.71242188 5.29153564 -13.04984375 4.95807129 -12.3671875 4.61450195 C-3.11210626 0 -3.11210626 0 0 0 Z " fill="#C4680E" transform="translate(288,167)"/>
<path d="M0 0 C0.1173794 3.49971199 0.18763961 6.99890955 0.25 10.5 C0.30027344 11.97339844 0.30027344 11.97339844 0.3515625 13.4765625 C0.46054075 21.64993115 -1.52557 26.93296674 -6.4375 33.375 C-8.94686782 35.94557191 -10.5873099 37.02494569 -14 38 C-13.67 36.68 -13.34 35.36 -13 34 C-12.01 34 -11.02 34 -10 34 C-9.67 32.35 -9.34 30.7 -9 29 C-7.68 28.67 -6.36 28.34 -5 28 C-2.54274575 20.13678639 -2.3769224 12.17326473 -2 4 C-3.61261719 4.69996094 -3.61261719 4.69996094 -5.2578125 5.4140625 C-7.77290735 6.49268287 -10.28503449 7.48865625 -12.875 8.375 C-16.85987264 9.81699671 -20.33686545 11.8655201 -23.921875 14.109375 C-26.4454435 15.19090436 -27.43658113 14.76166336 -30 14 C-24.34045692 10.98639179 -18.67438973 7.98556194 -13 5 C-11.9275 4.43539062 -10.855 3.87078125 -9.75 3.2890625 C-8.88375 2.84304687 -8.0175 2.39703125 -7.125 1.9375 C-6.38507813 1.55464844 -5.64515625 1.17179688 -4.8828125 0.77734375 C-3 0 -3 0 0 0 Z " fill="#D5A26D" transform="translate(288,207)"/>
<path d="M0 0 C0.66 0 1.32 0 2 0 C2.117791 3.31219232 2.18777155 6.62383492 2.25 9.9375 C2.30027344 11.32678711 2.30027344 11.32678711 2.3515625 12.74414062 C2.44482059 19.38877956 1.19477792 24.17322212 -2 30 C-2.66 29.67 -3.32 29.34 -4 29 C-3.67 27.68 -3.34 26.36 -3 25 C-2.34 25 -1.68 25 -1 25 C-1 18.4 -1 11.8 -1 5 C-2.65 5.33 -4.3 5.66 -6 6 C-6 6.66 -6 7.32 -6 8 C-6.78246094 8.19335938 -7.56492187 8.38671875 -8.37109375 8.5859375 C-9.38300781 8.84632813 -10.39492188 9.10671875 -11.4375 9.375 C-12.44683594 9.63023437 -13.45617187 9.88546875 -14.49609375 10.1484375 C-17.15570324 10.72573954 -17.15570324 10.72573954 -18 13 C-19.65 13 -21.3 13 -23 13 C-20.75529826 10.50459364 -18.62743286 9.16848524 -15.5859375 7.7734375 C-14.74289062 7.3815625 -13.89984375 6.9896875 -13.03125 6.5859375 C-12.1546875 6.18632812 -11.278125 5.78671875 -10.375 5.375 C-8.63198932 4.57209712 -6.88975777 3.76749995 -5.1484375 2.9609375 C-4.37677246 2.60821777 -3.60510742 2.25549805 -2.81005859 1.89208984 C-1.02639851 1.13361967 -1.02639851 1.13361967 0 0 Z " fill="#D5A674" transform="translate(286,248)"/>
<path d="M0 0 C1.32 0 2.64 0 4 0 C4 0.66 4 1.32 4 2 C3.34 2 2.68 2 2 2 C1.34 4.97 0.68 7.94 0 11 C0.99 10.34 1.98 9.68 3 9 C3.99 9 4.98 9 6 9 C6 9.99 6 10.98 6 12 C4.73160474 12.50615298 3.46016898 13.00469099 2.1875 13.5 C1.47980469 13.7784375 0.77210938 14.056875 0.04296875 14.34375 C-2 15 -2 15 -5 15 C-4.67 14.34 -4.34 13.68 -4 13 C-4.66 13 -5.32 13 -6 13 C-10 7.70588235 -10 7.70588235 -10 4 C-8.0625 4.8125 -8.0625 4.8125 -6 6 C-5.67 6.99 -5.34 7.98 -5 9 C-4.34 9 -3.68 9 -3 9 C-2.814375 7.88625 -2.814375 7.88625 -2.625 6.75 C-2.04513299 4.19858515 -1.26291261 2.2732427 0 0 Z " fill="#C78647" transform="translate(222,269)"/>
<path d="M0 0 C0.99 0 1.98 0 3 0 C3 1.65 3 3.3 3 5 C3.66 5 4.32 5 5 5 C5 5.66 5 6.32 5 7 C5.37125 6.505 5.7425 6.01 6.125 5.5 C8.74694393 3.40244486 10.73842472 3.78256165 14 4 C14 4.66 14 5.32 14 6 C13.34 6 12.68 6 12 6 C11.67 9.3 11.34 12.6 11 16 C10.01 16 9.02 16 8 16 C6.46484375 14.390625 6.46484375 14.390625 4.9375 12.25 C4.43089844 11.55390625 3.92429688 10.8578125 3.40234375 10.140625 C0.94761446 6.39357305 0 4.60803205 0 0 Z " fill="#CD8E50" transform="translate(210,308)"/>
<path d="M0 0 C1 3 1 3 1 5 C3.97 4.01 6.94 3.02 10 2 C5.19848771 9.20226843 5.19848771 9.20226843 2 12 C-1.1875 12.3125 -1.1875 12.3125 -4 12 C-4.99 12.66 -5.98 13.32 -7 14 C-6.505 13.1028125 -6.505 13.1028125 -6 12.1875 C-4.79212012 9.94613529 -4.79212012 9.94613529 -5 7 C-4.67 6.34 -4.34 5.68 -4 5 C-3.34 5.33 -2.68 5.66 -2 6 C-1.34 4.02 -0.68 2.04 0 0 Z " fill="#BE6A1B" transform="translate(221,233)"/>
<path d="M0 0 C0.66 0.33 1.32 0.66 2 1 C-3.75 5 -3.75 5 -6 5 C-6.268125 5.804375 -6.53625 6.60875 -6.8125 7.4375 C-7.204375 8.283125 -7.59625 9.12875 -8 10 C-11 11 -11 11 -14.4375 11.4375 C-17.48880759 11.91928541 -19.39649931 12.43789959 -22 14 C-22.33 13.01 -22.66 12.02 -23 11 C-21.989375 10.67 -20.97875 10.34 -19.9375 10 C-14.7157693 8.08066115 -9.93404567 5.34178123 -5.10522461 2.60546875 C-3.43418801 1.67927487 -1.71963902 0.83249028 0 0 Z " fill="#D5A16B" transform="translate(265,177)"/>
<path d="M0 0 C0.05790353 3.29159316 0.09356261 6.58305603 0.125 9.875 C0.14175781 10.81214844 0.15851563 11.74929687 0.17578125 12.71484375 C0.18222656 13.61074219 0.18867188 14.50664062 0.1953125 15.4296875 C0.20578613 16.25710449 0.21625977 17.08452148 0.22705078 17.93701172 C0 20 0 20 -2 22 C-2 16.06 -2 10.12 -2 4 C-4.64 4.99 -7.28 5.98 -10 7 C-10.66 6.34 -11.32 5.68 -12 5 C-10.37750059 4.16180842 -8.75191503 3.3295884 -7.125 2.5 C-6.22007812 2.0359375 -5.31515625 1.571875 -4.3828125 1.09375 C-2 0 -2 0 0 0 Z " fill="#D8A775" transform="translate(288,167)"/>
<path d="M0 0 C0.99 0.33 1.98 0.66 3 1 C3.70381157 2.98723268 4.3711811 4.98777953 5 7 C5.66 7.33 6.32 7.66 7 8 C7 9.32 7 10.64 7 12 C6.34 12 5.68 12 5 12 C4.67 12.66 4.34 13.32 4 14 C1.4375 12.625 1.4375 12.625 -1 10 C-1.15019141 6.57778137 -0.64674116 3.35537 0 0 Z " fill="#C2640B" transform="translate(214,223)"/>
<path d="M0 0 C-0.66 0 -1.32 0 -2 0 C-2.33 0.99 -2.66 1.98 -3 3 C-5.7775209 4.8516806 -7.80073225 5.46948372 -10.96484375 6.2890625 C-14.19918443 7.41890896 -16.99829885 9.25292379 -19.88671875 11.07421875 C-22.44151857 12.19341941 -23.40035237 11.77639457 -26 11 C-23.29212552 9.56163015 -20.58371839 8.12427908 -17.875 6.6875 C-17.11445313 6.28337891 -16.35390625 5.87925781 -15.5703125 5.46289062 C-14.07458333 4.66989628 -12.5768917 3.88059114 -11.07714844 3.09521484 C-9.25124071 2.1324713 -7.44067694 1.14074425 -5.6328125 0.14453125 C-3 -1 -3 -1 0 0 Z " fill="#DDB990" transform="translate(284,210)"/>
<path d="M0 0 C0.6875 2.3125 0.6875 2.3125 1 5 C-0.3125 6.8125 -0.3125 6.8125 -2 8 C-2.66 8 -3.32 8 -4 8 C-4 8.66 -4 9.32 -4 10 C-8.455 11.485 -8.455 11.485 -13 13 C-10.66666667 8.33333333 -10.66666667 8.33333333 -7 7 C-6.01 7 -5.02 7 -4 7 C-4.226875 6.401875 -4.45375 5.80375 -4.6875 5.1875 C-4.790625 4.465625 -4.89375 3.74375 -5 3 C-3.38441968 0.84589291 -2.74502455 0 0 0 Z " fill="#C97D32" transform="translate(280,194)"/>
<path d="M0 0 C0.66 0.33 1.32 0.66 2 1 C-0.875 7.75 -0.875 7.75 -2 10 C-2.07194869 12.88370333 -2.09291708 15.74239664 -2.0625 18.625 C-2.05573242 19.82769531 -2.05573242 19.82769531 -2.04882812 21.0546875 C-2.03703168 23.03649006 -2.01909605 25.01825433 -2 27 C-5.10869381 23.89130619 -5.18165527 20.58905677 -5.3125 16.3125 C-5.28001414 10.83051064 -3.55977611 6.77002457 -1 2 C-0.67 1.34 -0.34 0.68 0 0 Z " fill="#E3C19A" transform="translate(214,205)"/>
<path d="M0 0 C0.75 1.5625 0.75 1.5625 1 4 C0.06239446 5.60732379 -0.88289912 7.21088506 -1.875 8.78515625 C-4.1230987 13.21110056 -4.95408504 18.17452872 -6 23 C-6.33 23 -6.66 23 -7 23 C-7.45354276 14.8026346 -6.71511485 8.72358608 -1.8125 2 C-1.214375 1.34 -0.61625 0.68 0 0 Z " fill="#DCB486" transform="translate(216,285)"/>
<path d="M0 0 C1.32 0.66 2.64 1.32 4 2 C4.33 1.34 4.66 0.68 5 0 C6.98 0 8.96 0 11 0 C9.71264403 2.57471193 8.71510189 2.70416657 6.0625 3.6875 C5.35222656 3.95949219 4.64195312 4.23148437 3.91015625 4.51171875 C2 5 2 5 0 4 C-0.1546875 4.8971875 -0.1546875 4.8971875 -0.3125 5.8125 C-1.08876455 8.28243264 -2.07088921 9.32251235 -4 11 C-4 9.68 -4 8.36 -4 7 C-3.34 7 -2.68 7 -2 7 C-2.226875 6.401875 -2.45375 5.80375 -2.6875 5.1875 C-2.790625 4.465625 -2.89375 3.74375 -3 3 C-1.5625 1.25 -1.5625 1.25 0 0 Z " fill="#C97E31" transform="translate(222,265)"/>
<path d="M0 0 C-2.43123269 1.36663387 -4.86886163 2.7183867 -7.3125 4.0625 C-8.00279297 4.45244141 -8.69308594 4.84238281 -9.40429688 5.24414062 C-11.22925688 6.24037483 -13.11273877 7.12752842 -15 8 C-15.99 7.67 -16.98 7.34 -18 7 C-14.26917989 2.23998814 -6.07483443 -3.03741722 0 0 Z " fill="#D29F6B" transform="translate(249,298)"/>
<path d="M0 0 C1.670625 0.061875 1.670625 0.061875 3.375 0.125 C3.375 0.785 3.375 1.445 3.375 2.125 C1.62697854 2.94174796 -0.12350189 3.75323451 -1.875 4.5625 C-3.33679688 5.24119141 -3.33679688 5.24119141 -4.828125 5.93359375 C-7.11751695 6.90882356 -9.19878746 7.6224274 -11.625 8.125 C-11.295 6.805 -10.965 5.485 -10.625 4.125 C-8.975 4.125 -7.325 4.125 -5.625 4.125 C-5.625 3.465 -5.625 2.805 -5.625 2.125 C-3.625 0.125 -3.625 0.125 0 0 Z " fill="#D2975E" transform="translate(269.625,244.875)"/>
<path d="M0 0 C0.66 0.33 1.32 0.66 2 1 C1.67 1.66 1.34 2.32 1 3 C0.34 3 -0.32 3 -1 3 C-1.2475 3.639375 -1.495 4.27875 -1.75 4.9375 C-3 7 -3 7 -4.875 7.6875 C-5.57625 7.790625 -6.2775 7.89375 -7 8 C-8.11375 8.2784375 -8.11375 8.2784375 -9.25 8.5625 C-9.8275 8.706875 -10.405 8.85125 -11 9 C-11 8.34 -11 7.68 -11 7 C-10.34 7 -9.68 7 -9 7 C-9 6.34 -9 5.68 -9 5 C-7.54735962 4.1361871 -6.0876837 3.28419546 -4.625 2.4375 C-3.40683594 1.72400391 -3.40683594 1.72400391 -2.1640625 0.99609375 C-1.44992188 0.66738281 -0.73578125 0.33867187 0 0 Z " fill="#D19354" transform="translate(227,196)"/>
<path d="M0 0 C1.65 0.33 3.3 0.66 5 1 C3.61326942 3.77346117 1.86966354 4.29925713 -0.875 5.6875 C-2.20144531 6.37392578 -2.20144531 6.37392578 -3.5546875 7.07421875 C-6 8 -6 8 -9 7 C-8.34 7 -7.68 7 -7 7 C-7 5.68 -7 4.36 -7 3 C-3.535 2.505 -3.535 2.505 0 2 C0 1.34 0 0.68 0 0 Z " fill="#D6A471" transform="translate(242,257)"/>
<path d="M0 0 C1.39143652 3.86510145 0.96911452 7.05431946 0 11 C-2.5625 13.9375 -2.5625 13.9375 -5 16 C-4.67 13.03 -4.34 10.06 -4 7 C-3.01 6.67 -2.02 6.34 -1 6 C-0.67 4.02 -0.34 2.04 0 0 Z " fill="#C88E4E" transform="translate(286,182)"/>
<path d="M0 0 C0.33 0.66 0.66 1.32 1 2 C0.28070313 2.27457031 -0.43859375 2.54914063 -1.1796875 2.83203125 C-4.82052328 4.33980119 -8.22963399 6.20443779 -11.6953125 8.07421875 C-14 9 -14 9 -17 8 C-16.67 7.34 -16.34 6.68 -16 6 C-14.35 6 -12.7 6 -11 6 C-11 5.01 -11 4.02 -11 3 C-9.02 3 -7.04 3 -5 3 C-5 2.34 -5 1.68 -5 1 C-3.35 0.67 -1.7 0.34 0 0 Z " fill="#DFB586" transform="translate(270,286)"/>
<path d="M0 0 C-4.75 3 -4.75 3 -7 3 C-7 3.99 -7 4.98 -7 6 C-10.3 6.33 -13.6 6.66 -17 7 C-13.94902748 4.71177061 -11.28843451 2.96842795 -7.9375 1.25 C-7.08027344 0.80140625 -6.22304688 0.3528125 -5.33984375 -0.109375 C-3 -1 -3 -1 0 0 Z " fill="#DAAD7C" transform="translate(263,262)"/>
<path d="M0 0 C1 3 1 3 1 5 C1.99 4.34 2.98 3.68 4 3 C4.99 3 5.98 3 7 3 C7 3.99 7 4.98 7 6 C5.73160474 6.50615298 4.46016898 7.00469099 3.1875 7.5 C2.12595703 7.91765625 2.12595703 7.91765625 1.04296875 8.34375 C-1 9 -1 9 -4 9 C-2.68 6.03 -1.36 3.06 0 0 Z " fill="#E4BE91" transform="translate(221,275)"/>
<path d="M0 0 C0 0.99 0 1.98 0 3 C-0.66 3 -1.32 3 -2 3 C-2.33 3.99 -2.66 4.98 -3 6 C-3.721875 5.979375 -4.44375 5.95875 -5.1875 5.9375 C-7.91925138 5.99820559 -10.34256091 6.39258535 -13 7 C-11.60643954 4.21287908 -9.83494327 3.73536671 -7.0625 2.375 C-6.16660156 1.92898437 -5.27070313 1.48296875 -4.34765625 1.0234375 C-2 0 -2 0 0 0 Z " fill="#D5A26C" transform="translate(257,222)"/>
<path d="M0 0 C0 0.66 0 1.32 0 2 C-0.61875 2.061875 -1.2375 2.12375 -1.875 2.1875 C-4.27761141 2.828919 -4.27761141 2.828919 -5.25 5.5625 C-5.4975 6.366875 -5.745 7.17125 -6 8 C-8.31 7.67 -10.62 7.34 -13 7 C-12.67 6.34 -12.34 5.68 -12 5 C-11.01 5 -10.02 5 -9 5 C-9 4.34 -9 3.68 -9 3 C-2.25 0 -2.25 0 0 0 Z " fill="#D8A773" transform="translate(246,269)"/>
<path d="M0 0 C0 0.66 0 1.32 0 2 C-0.99 2 -1.98 2 -3 2 C-2.67 2.99 -2.34 3.98 -2 5 C-4.75 6.125 -4.75 6.125 -8 7 C-10.203125 6.0546875 -10.203125 6.0546875 -12 5 C-10.37750059 4.16180842 -8.75191503 3.3295884 -7.125 2.5 C-6.22007812 2.0359375 -5.31515625 1.571875 -4.3828125 1.09375 C-2 0 -2 0 0 0 Z " fill="#D39F65" transform="translate(241,190)"/>
<path d="M0 0 C0.99 0 1.98 0 3 0 C4.76462683 3.08809695 5 4.23312136 5 8 C4.34 8 3.68 8 3 8 C1 6 1 6 -1 3 C-0.67 2.01 -0.34 1.02 0 0 Z " fill="#CA7727" transform="translate(218,225)"/>
<path d="M0 0 C1.98 0 3.96 0 6 0 C6 0.66 6 1.32 6 2 C5.34 2 4.68 2 4 2 C3.67 5.3 3.34 8.6 3 12 C2.01 12 1.02 12 0 12 C0.08378906 11.38511719 0.16757813 10.77023437 0.25390625 10.13671875 C0.35574219 9.32847656 0.45757812 8.52023437 0.5625 7.6875 C0.66691406 6.88699219 0.77132812 6.08648437 0.87890625 5.26171875 C1.14755178 2.83182884 1.14755178 2.83182884 0 0 Z " fill="#DFB88C" transform="translate(218,312)"/>
<path d="M0 0 C-0.5625 1.875 -0.5625 1.875 -2 4 C-6.10870902 5.59783129 -8.79911692 6.28617345 -13 5 C-11.39967863 4.15930585 -9.79458829 3.32768495 -8.1875 2.5 C-6.84751953 1.80390625 -6.84751953 1.80390625 -5.48046875 1.09375 C-3 0 -3 0 0 0 Z " fill="#D3A067" transform="translate(244,229)"/>
<path d="M0 0 C1.30194786 3.90584359 0.70818927 5.28654507 -1 9 C-2.8829788 10.91794127 -4.82572501 12.39292718 -7 14 C-6.505 13.1028125 -6.505 13.1028125 -6 12.1875 C-4.79212012 9.94613529 -4.79212012 9.94613529 -5 7 C-4.67 6.34 -4.34 5.68 -4 5 C-3.34 5.33 -2.68 5.66 -2 6 C-1.34 4.02 -0.68 2.04 0 0 Z " fill="#F3DAB7" transform="translate(221,233)"/>
<path d="M0 0 C2.4932534 0.99730136 3.77467439 1.65074531 5.25 3.9375 C6 6 6 6 6 9 C5.34 9 4.68 9 4 9 C0 3.70588235 0 3.70588235 0 0 Z " fill="#D5A26D" transform="translate(212,273)"/>
<path d="M0 0 C0.763125 0.495 1.52625 0.99 2.3125 1.5 C4.92363751 3.24368308 4.92363751 3.24368308 8 3 C7.67 4.65 7.34 6.3 7 8 C4.5 6.625 4.5 6.625 2 5 C2 4.34 2 3.68 2 3 C1.34 3 0.68 3 0 3 C0 2.01 0 1.02 0 0 Z " fill="#C98D53" transform="translate(212,232)"/>
<path d="M0 0 C-0.66 0 -1.32 0 -2 0 C-2.33 0.99 -2.66 1.98 -3 3 C-6 5 -6 5 -10 5 C-9 2 -9 2 -6.125 0.25 C-3 -1 -3 -1 0 0 Z " fill="#D9AB7B" transform="translate(284,210)"/>
<path d="M0 0 C1.65 0.33 3.3 0.66 5 1 C4.01 1.495 4.01 1.495 3 2 C2.67 2.99 2.34 3.98 2 5 C0.35 5 -1.3 5 -3 5 C-3 4.34 -3 3.68 -3 3 C-2.01 3 -1.02 3 0 3 C0 2.01 0 1.02 0 0 Z " fill="#C6833F" transform="translate(250,292)"/>
<path d="M0 0 C-0.969375 0.45375 -1.93875 0.9075 -2.9375 1.375 C-6.07079582 2.65786221 -6.07079582 2.65786221 -7 5 C-8.65 5 -10.3 5 -12 5 C-8.77464852 1.23708994 -4.90542108 -1.63514036 0 0 Z " fill="#E9CAA0" transform="translate(275,256)"/>
<path d="M0 0 C0.66 0.33 1.32 0.66 2 1 C-1.32307692 4.93846154 -1.32307692 4.93846154 -4.75 5.25 C-5.4925 5.1675 -6.235 5.085 -7 5 C-7 4.34 -7 3.68 -7 3 C-4.69631264 1.93347808 -2.35981813 0.93578995 0 0 Z " fill="#DAB07F" transform="translate(229,235)"/>
<path d="M0 0 C0 0.66 0 1.32 0 2 C-4.455 3.485 -4.455 3.485 -9 5 C-6.42453433 -0.15093135 -5.59847872 0 0 0 Z " fill="#DBAC7A" transform="translate(276,202)"/>
<path d="M0 0 C-1.28650706 0.69710731 -2.57940665 1.38242876 -3.875 2.0625 C-4.95394531 2.63677734 -4.95394531 2.63677734 -6.0546875 3.22265625 C-6.69664062 3.47917969 -7.33859375 3.73570312 -8 4 C-8.66 3.67 -9.32 3.34 -10 3 C-7.30922307 -0.25725628 -4.0224365 -2.01121825 0 0 Z " fill="#DBB688" transform="translate(249,298)"/>
<path d="M0 0 C-1.28650706 0.69710731 -2.57940665 1.38242876 -3.875 2.0625 C-4.95394531 2.63677734 -4.95394531 2.63677734 -6.0546875 3.22265625 C-6.69664062 3.47917969 -7.33859375 3.73570312 -8 4 C-8.66 3.67 -9.32 3.34 -10 3 C-9.67 2.01 -9.34 1.02 -9 0 C-2.25 -1.125 -2.25 -1.125 0 0 Z " fill="#DFB787" transform="translate(268,249)"/>
<path d="M0 0 C-0.639375 0.103125 -1.27875 0.20625 -1.9375 0.3125 C-2.9584375 0.6528125 -2.9584375 0.6528125 -4 1 C-4.33 1.99 -4.66 2.98 -5 4 C-5.99 4.33 -6.98 4.66 -8 5 C-8.66 4.34 -9.32 3.68 -10 3 C-3.375 -1.125 -3.375 -1.125 0 0 Z " fill="#E5BE9A" transform="translate(286,169)"/>
<path d="M0 0 C1.65 0.33 3.3 0.66 5 1 C4.34 1.66 3.68 2.32 3 3 C2.01 3 1.02 3 0 3 C-0.33 3.66 -0.66 4.32 -1 5 C-0.67 3.35 -0.34 1.7 0 0 Z M-5 5 C-1 6 -1 6 -1 6 Z " fill="#CB8844" transform="translate(229,276)"/>
<path d="M0 0 C0 0.99 0 1.98 0 3 C-3.465 4.485 -3.465 4.485 -7 6 C-7 5.34 -7 4.68 -7 4 C-6.34 4 -5.68 4 -5 4 C-5 3.34 -5 2.68 -5 2 C-2 0 -2 0 0 0 Z " fill="#D7A670" transform="translate(223,199)"/>
<path d="M0 0 C-1.27596315 2.55192629 -2.37156116 2.99500868 -5 4 C-5.99 3.67 -6.98 3.34 -8 3 C-5.53387212 -0.1151089 -3.89156016 -0.31553191 0 0 Z " fill="#D6AB78" transform="translate(255,254)"/>
<path d="M0 0 C1.32 0.66 2.64 1.32 4 2 C1.1875 3.5625 1.1875 3.5625 -2 5 C-2.99 4.67 -3.98 4.34 -5 4 C-4.34 4 -3.68 4 -3 4 C-3 3.34 -3 2.68 -3 2 C-2.01 2 -1.02 2 0 2 C0 1.34 0 0.68 0 0 Z " fill="#DDB586" transform="translate(263,206)"/>
</svg>
