<?xml version="1.0" encoding="UTF-8"?>
<svg version="1.1" xmlns="http://www.w3.org/2000/svg" width="500" height="500">
<path d="M0 0 C0.1173794 3.49971199 0.18763961 6.99890955 0.25 10.5 C0.28351563 11.48226562 0.31703125 12.46453125 0.3515625 13.4765625 C0.45243816 21.04223714 -0.9737452 26.01606963 -5.54296875 32.03125 C-11.77476662 37.59694121 -19.21963775 40.60299063 -26.76416016 43.97949219 C-30.28317688 45.58568239 -33.73525397 47.31842074 -37.1875 49.0625 C-37.83871826 49.38992187 -38.48993652 49.71734375 -39.16088867 50.0546875 C-41.10822652 51.0345535 -43.05429479 52.01689656 -45 53 C-47.60301767 54.31479599 -50.20736151 55.62691232 -52.8125 56.9375 C-53.93269531 57.50339844 -55.05289063 58.06929687 -56.20703125 58.65234375 C-59 60 -59 60 -62 61 C-63.15020525 63.24743756 -63.15020525 63.24743756 -64 66 C-64.66666667 68 -65.33333333 70 -66 72 C-65.13761719 71.52691406 -64.27523437 71.05382812 -63.38671875 70.56640625 C-55.93389146 66.51478586 -48.40224738 62.66213124 -40.75 59 C-39.92846436 58.60240479 -39.10692871 58.20480957 -38.26049805 57.79516602 C-37.48875244 57.42963623 -36.71700684 57.06410645 -35.921875 56.6875 C-34.89465332 56.19830078 -34.89465332 56.19830078 -33.84667969 55.69921875 C-32 55 -32 55 -29 55 C-29 54.34 -29 53.68 -29 53 C-26.09399739 51.74335022 -24.20395416 51 -21 51 C-21 50.34 -21 49.68 -21 49 C-20.13117188 48.60167969 -19.26234375 48.20335937 -18.3671875 47.79296875 C-17.21476562 47.26316406 -16.06234375 46.73335937 -14.875 46.1875 C-13.73804688 45.66542969 -12.60109375 45.14335937 -11.4296875 44.60546875 C-9.16502485 43.54535901 -6.91907349 42.44420445 -4.6953125 41.30078125 C-2 40 -2 40 0 40 C0.17656013 43.79106283 0.28159677 47.58104955 0.375 51.375 C0.42527344 52.43589844 0.47554688 53.49679688 0.52734375 54.58984375 C0.67036643 62.36074287 -0.85616627 67.99914073 -6 74 C-6.66 74 -7.32 74 -8 74 C-8 74.66 -8 75.32 -8 76 C-8.99 76 -9.98 76 -11 76 C-11 76.66 -11 77.32 -11 78 C-12.12277344 78.51949219 -13.24554688 79.03898437 -14.40234375 79.57421875 C-15.91443466 80.27784663 -17.42612801 80.98232924 -18.9375 81.6875 C-19.71569092 82.05037109 -20.49388184 82.41324219 -21.2956543 82.78710938 C-26.08407402 85.04001258 -30.72920096 87.40705292 -35.23828125 90.1875 C-37 91 -37 91 -41 91 C-41 91.66 -41 92.32 -41 93 C-41.6703125 93.25523437 -42.340625 93.51046875 -43.03125 93.7734375 C-56.25124344 98.98011514 -56.25124344 98.98011514 -65.3359375 109.23828125 C-65.92898145 110.81159196 -66.46830387 112.40491162 -67 114 C-65.865625 113.39671875 -64.73125 112.7934375 -63.5625 112.171875 C-62.0416933 111.36453317 -60.52085846 110.55724434 -59 109.75 C-58.25621094 109.35425781 -57.51242188 108.95851563 -56.74609375 108.55078125 C-50.25865546 105.10961833 -43.82779161 101.71584682 -37 99 C-34.61448916 97.82969645 -32.24239993 96.64317222 -29.875 95.4375 C-23.50809326 92.23111163 -17.11498642 89.08324837 -10.6875 86 C-9.86942871 85.60224365 -9.05135742 85.2044873 -8.20849609 84.79467773 C-7.05921631 84.24662476 -7.05921631 84.24662476 -5.88671875 83.6875 C-5.20826904 83.36136719 -4.52981934 83.03523438 -3.83081055 82.69921875 C-2 82 -2 82 1 82 C1.55353075 101.00455581 1.55353075 101.00455581 -2 109 C-2.66 109 -3.32 109 -4 109 C-4.37125 109.86625 -4.37125 109.86625 -4.75 110.75 C-7.85550023 116.33990041 -12.75837362 118.70165821 -18.25 121.5 C-18.97574219 121.87769531 -19.70148438 122.25539063 -20.44921875 122.64453125 C-21.90490574 123.39962022 -23.36389467 124.14837884 -24.82617188 124.890625 C-26.288029 125.63665811 -27.7424659 126.39739477 -29.18945312 127.171875 C-29.88490234 127.53796875 -30.58035156 127.9040625 -31.296875 128.28125 C-31.91401367 128.61189453 -32.53115234 128.94253906 -33.16699219 129.28320312 C-35 130 -35 130 -39 130 C-39 130.66 -39 131.32 -39 132 C-40.32 132 -41.64 132 -43 132 C-43 132.66 -43 133.32 -43 134 C-43.99 134.4125 -44.98 134.825 -46 135.25 C-49.52241652 136.74935856 -52.91160757 138.45265073 -56.30078125 140.23046875 C-58 141 -58 141 -60 141 C-60 141.66 -60 142.32 -60 143 C-60.66 143 -61.32 143 -62 143 C-62.28875 143.5775 -62.5775 144.155 -62.875 144.75 C-63.57103291 146.14206581 -64.29518663 147.52091758 -65.0625 148.875 C-66.2385642 151.54074552 -66.60786158 154.12431827 -67 157 C-67.99 156.67 -68.98 156.34 -70 156 C-70 155.34 -70 154.68 -70 154 C-70.66 154 -71.32 154 -72 154 C-77.65568045 146.89956629 -78.77567938 139.8874451 -78 131 C-77.05140789 127.15907487 -75.76910628 123.53821256 -74 120 C-73.34 120 -72.68 120 -72 120 C-72 119.34 -72 118.68 -72 118 C-71.34 118 -70.68 118 -70 118 C-70.598125 116.948125 -71.19625 115.89625 -71.8125 114.8125 C-72.35777344 113.84957031 -72.35777344 113.84957031 -72.9140625 112.8671875 C-73.78989462 111.36126033 -74.72936362 109.89244784 -75.6875 108.4375 C-78.93410453 102.40809159 -78.99000191 94.00252307 -77.36328125 87.42578125 C-76.40318595 84.517395 -75.36996668 81.73993336 -74 79 C-73.34 79 -72.68 79 -72 79 C-71.06619039 74.46859347 -71.06619039 74.46859347 -72 70 C-72.66 70 -73.32 70 -74 70 C-78.46976554 61.64348182 -79.26128452 53.82376126 -76.6875 44.6875 C-75.64417781 41.25944138 -74.39654842 38.69226648 -72 36 C-71.34 36 -70.68 36 -70 36 C-70 35.34 -70 34.68 -70 34 C-59.82043054 28.47661631 -49.54325856 23.26021207 -39.04614258 18.36376953 C-34.89227978 16.41846487 -30.8949856 14.43621723 -27 12 C-24.01642002 10.65028525 -22.29665696 10 -19 10 C-19 9.34 -19 8.68 -19 8 C-18.10796875 7.59007812 -17.2159375 7.18015625 -16.296875 6.7578125 C-15.12640625 6.21898437 -13.9559375 5.68015625 -12.75 5.125 C-11.58984375 4.59132812 -10.4296875 4.05765625 -9.234375 3.5078125 C-7.3744136 2.64072904 -5.52351636 1.75203402 -3.703125 0.8046875 C-2 0 -2 0 0 0 Z " fill="#C4670E" transform="translate(271,167)"/>
<path d="M0 0 C0.845625 -0.00708984 1.69125 -0.01417969 2.5625 -0.02148438 C6.14111531 0.0152049 8.69692301 0.09115914 11.9140625 1.734375 C14.16826522 4.36226908 14.12122275 7.07495145 14.375 10.4375 C13.385 10.4375 12.395 10.4375 11.375 10.4375 C11.045 8.4575 10.715 6.4775 10.375 4.4375 C2.86405184 3.5986484 -4.13324535 3.3601459 -11.625 4.4375 C-11.625 6.4175 -11.625 8.3975 -11.625 10.4375 C-11.00979492 10.51790527 -10.39458984 10.59831055 -9.76074219 10.68115234 C-6.96445757 11.05086104 -4.16977586 11.4315607 -1.375 11.8125 C0.07712891 12.00199219 0.07712891 12.00199219 1.55859375 12.1953125 C2.49316406 12.32421875 3.42773438 12.453125 4.390625 12.5859375 C5.67888184 12.75875244 5.67888184 12.75875244 6.99316406 12.93505859 C9.375 13.4375 9.375 13.4375 13.375 15.4375 C13.375 18.7375 13.375 22.0375 13.375 25.4375 C8.43491584 27.90754208 4.79592356 27.80475582 -0.625 27.8125 C-1.52734375 27.83699219 -2.4296875 27.86148437 -3.359375 27.88671875 C-9.94735935 27.91595537 -9.94735935 27.91595537 -13.203125 25.6171875 C-14.96840205 22.91107598 -15.33480483 20.62964691 -15.625 17.4375 C-14.635 17.4375 -13.645 17.4375 -12.625 17.4375 C-12.233125 18.406875 -11.84125 19.37625 -11.4375 20.375 C-9.99641848 23.56921514 -9.99641848 23.56921514 -7.5 24.15625 C-3.89567822 24.5088467 -0.40852646 24.29938211 3.1875 24 C3.88037109 23.94779297 4.57324219 23.89558594 5.28710938 23.84179688 C6.98354437 23.71310181 8.67934863 23.57613816 10.375 23.4375 C10.375 21.4575 10.375 19.4775 10.375 17.4375 C9.46004761 17.33260254 9.46004761 17.33260254 8.52661133 17.22558594 C5.74456252 16.89676231 2.96633749 16.5424009 0.1875 16.1875 C-0.77220703 16.07792969 -1.73191406 15.96835938 -2.72070312 15.85546875 C-8.03518364 15.15667893 -11.87271823 14.61367971 -15.625 10.4375 C-16.3125 7.4375 -16.3125 7.4375 -15.625 4.4375 C-10.6514998 0.03694702 -6.47045007 -0.15429535 0 0 Z " fill="#C58F5E" transform="translate(93.625,232.5625)"/>
<path d="M0 0 C5.506875 -0.12375 5.506875 -0.12375 11.125 -0.25 C12.2711377 -0.28641602 13.41727539 -0.32283203 14.59814453 -0.36035156 C20.72617886 -0.42697231 24.39781897 -0.19477484 29 4 C31.49118953 7.7367843 31.2065226 9.74451819 31.125 14.1875 C31.10695312 15.45980469 31.08890625 16.73210937 31.0703125 18.04296875 C31.04710937 19.01878906 31.02390625 19.99460938 31 21 C30.34 21 29.68 21 29 21 C28.7525 21.61875 28.505 22.2375 28.25 22.875 C26.72787621 25.46261045 25.77258342 25.92150697 23 27 C20.43457031 27.22705078 20.43457031 27.22705078 17.578125 27.1953125 C16.65418945 27.19031738 15.73025391 27.18532227 14.77832031 27.18017578 C13.03180176 27.15286377 13.03180176 27.15286377 11.25 27.125 C7.5375 27.08375 3.825 27.0425 0 27 C0 18.09 0 9.18 0 0 Z M3 3 C3 9.93 3 16.86 3 24 C6.01125 24.103125 9.0225 24.20625 12.125 24.3125 C13.06230957 24.35802002 13.99961914 24.40354004 14.96533203 24.45043945 C19.13213314 24.51922052 22.16935836 24.38292827 25.578125 21.828125 C28.96499887 17.87313035 28.74071759 15.53452852 28.46484375 10.53515625 C28.14819193 7.83055166 28.14819193 7.83055166 26.1875 5.375 C22.98777723 3.36374569 20.46685557 2.87612159 16.76953125 2.90234375 C15.68442261 2.90609009 15.68442261 2.90609009 14.57739258 2.90991211 C13.20877075 2.92356812 13.20877075 2.92356812 11.8125 2.9375 C8.904375 2.958125 5.99625 2.97875 3 3 Z " fill="#C68F59" transform="translate(115,233)"/>
<path d="M0 0 C0.73798828 -0.01160156 1.47597656 -0.02320313 2.23632812 -0.03515625 C7.05082945 -0.00947891 10.40956087 0.70659567 14.5625 3.375 C16.5625 6.375 16.5625 6.375 16.5625 10.375 C15.5725 10.375 14.5825 10.375 13.5625 10.375 C13.2325 9.055 12.9025 7.735 12.5625 6.375 C11.9025 6.375 11.2425 6.375 10.5625 6.375 C10.5625 5.715 10.5625 5.055 10.5625 4.375 C2.79132846 3.3869129 -3.84566971 3.34267375 -11.4375 5.375 C-12.46585363 8.46006088 -12.57118434 10.6444272 -12.5625 13.875 C-12.56636719 15.31359375 -12.56636719 15.31359375 -12.5703125 16.78125 C-12.54742972 19.49071152 -12.54742972 19.49071152 -11.4375 22.375 C-5.29367434 25.17544146 2.10146679 24.68839036 8.5625 23.375 C11.89151247 21.15565836 12.31273244 20.02816671 13.5625 16.375 C14.5525 16.375 15.5425 16.375 16.5625 16.375 C16.14735103 21.2184046 14.10041301 23.19087829 10.5625 26.375 C10.2325 26.705 9.9025 27.035 9.5625 27.375 C6.46618897 27.62568786 3.35526314 27.56022508 0.25 27.5625 C-0.61818359 27.57474609 -1.48636719 27.58699219 -2.38085938 27.59960938 C-3.22068359 27.60154297 -4.06050781 27.60347656 -4.92578125 27.60546875 C-5.69446533 27.60957764 -6.46314941 27.61368652 -7.25512695 27.61791992 C-9.69466738 27.3463747 -11.32159011 26.58885935 -13.4375 25.375 C-13.4375 24.715 -13.4375 24.055 -13.4375 23.375 C-14.0975 23.375 -14.7575 23.375 -15.4375 23.375 C-17.71471185 16.94522536 -18.04986802 12.00282804 -15.1875 5.5625 C-10.91697551 0.22434439 -6.39217005 -0.09996443 0 0 Z " fill="#D0A170" transform="translate(362.4375,232.625)"/>
<path d="M0 0 C2.32421875 0.2265625 2.32421875 0.2265625 5 1 C6.58203125 2.9609375 6.58203125 2.9609375 7.8125 5.375 C8.23144531 6.16648438 8.65039062 6.95796875 9.08203125 7.7734375 C10 10 10 10 10 13 C10.66 13 11.32 13 12 13 C13.0076952 14.7664657 14.00591714 16.53833823 15 18.3125 C15.556875 19.29863281 16.11375 20.28476563 16.6875 21.30078125 C18 24 18 24 18 27 C17.01 27 16.02 27 15 27 C15 26.34 15 25.68 15 25 C14.34 25 13.68 25 13 25 C12.67 24.01 12.34 23.02 12 22 C8.89632503 21.85484323 5.79351973 21.76599147 2.6875 21.6875 C1.80642578 21.64560547 0.92535156 21.60371094 0.01757812 21.56054688 C-2.41915343 21.51422118 -4.61086543 21.51130024 -7 22 C-8.98015185 24.39468525 -8.98015185 24.39468525 -10 27 C-10.99 27 -11.98 27 -13 27 C-12.28642945 23.33524258 -10.75604216 20.3125519 -9.0625 17 C-8.53785156 15.96875 -8.01320312 14.9375 -7.47265625 13.875 C-6.98667969 12.92625 -6.50070313 11.9775 -6 11 C-5.33158068 9.66754443 -4.66409887 8.33461415 -4 7 C-3.34 7 -2.68 7 -2 7 C-1.855625 6.401875 -1.71125 5.80375 -1.5625 5.1875 C-1.1127561 3.43849596 -0.57107659 1.71322977 0 0 Z M2 4 C1.67 5.32 1.34 6.64 1 8 C0.34 8 -0.32 8 -1 8 C-1.67154933 9.28913487 -2.33708859 10.58140204 -3 11.875 C-3.37125 12.59429687 -3.7425 13.31359375 -4.125 14.0546875 C-5.13673746 15.94848977 -5.13673746 15.94848977 -5 18 C-0.05 18 4.9 18 10 18 C7.69 13.38 5.38 8.76 3 4 C2.67 4 2.34 4 2 4 Z " fill="#CF9F72" transform="translate(162,233)"/>
<path d="M0 0 C1.7578125 0.10546875 1.7578125 0.10546875 4 1 C5.47960959 3.09960794 6.68108516 5.05937145 7.875 7.3125 C8.38836914 8.24570068 8.38836914 8.24570068 8.91210938 9.19775391 C12.10273798 15.04872508 15.09918868 21.00059477 18 27 C16.68 27 15.36 27 14 27 C13.62230469 26.19175781 13.24460937 25.38351562 12.85546875 24.55078125 C11.30630696 21.84844139 11.30630696 21.84844139 8.98681641 21.49365234 C6.42029398 21.28221905 3.88762302 21.20445399 1.3125 21.1875 C0.41982422 21.16236328 -0.47285156 21.13722656 -1.39257812 21.11132812 C-3.59549439 21.05242662 -5.79642319 21.01617246 -8 21 C-8.42925781 22.21236328 -8.42925781 22.21236328 -8.8671875 23.44921875 C-9.42792969 24.71185547 -9.42792969 24.71185547 -10 26 C-12.125 26.8125 -12.125 26.8125 -14 27 C-13.67 25.35 -13.34 23.7 -13 22 C-12.34 22 -11.68 22 -11 22 C-10.855625 21.401875 -10.71125 20.80375 -10.5625 20.1875 C-10.1127561 18.43849596 -9.57107659 16.71322977 -9 15 C-8.34 15 -7.68 15 -7 15 C-6.89816406 14.28457031 -6.79632813 13.56914062 -6.69140625 12.83203125 C-5.91567222 9.65458961 -4.67015917 7.45238165 -2.9375 4.6875 C-2.38964844 3.80449219 -1.84179688 2.92148438 -1.27734375 2.01171875 C-0.85582031 1.34785156 -0.43429687 0.68398437 0 0 Z M1 4 C-1.31 8.62 -3.62 13.24 -6 18 C-1.05 18 3.9 18 9 18 C6.79033067 11.87377531 6.79033067 11.87377531 4 6 C3.34 6 2.68 6 2 6 C1.67 5.34 1.34 4.68 1 4 Z " fill="#CE9E6D" transform="translate(326,233)"/>
<path d="M0 0 C0.99 0 1.98 0 3 0 C3 3.96 3 7.92 3 12 C6.3 11.67 9.6 11.34 13 11 C13 10.34 13 9.68 13 9 C14.68649389 7.38910756 16.45064334 5.85876269 18.25 4.375 C19.22453125 3.55773437 20.1990625 2.74046875 21.203125 1.8984375 C24 0 24 0 28 0 C26.86280581 3.41158256 25.95657056 4.11854601 23 6 C22.34 6 21.68 6 21 6 C21 6.66 21 7.32 21 8 C20.34 8 19.68 8 19 8 C19 8.66 19 9.32 19 10 C18.34 10 17.68 10 17 10 C17 10.66 17 11.32 17 12 C16.34 12.66 15.68 13.32 15 14 C15.66 14.45375 16.32 14.9075 17 15.375 C17.99 16.179375 17.99 16.179375 19 17 C19 17.66 19 18.32 19 19 C19.61875 19.309375 20.2375 19.61875 20.875 19.9375 C22.25 20.625 23.625 21.3125 25 22 C25 22.66 25 23.32 25 24 C25.66 24 26.32 24 27 24 C27.33 24.99 27.66 25.98 28 27 C23.26747906 26.51638472 20.81892651 24.54805615 17.25 21.5 C16.28578125 20.6853125 15.3215625 19.870625 14.328125 19.03125 C12 17 12 17 11 16 C9.65252916 15.76924918 8.29622435 15.58846937 6.9375 15.4375 C5.638125 15.293125 4.33875 15.14875 3 15 C3 18.96 3 22.92 3 27 C2.01 27 1.02 27 0 27 C0 18.09 0 9.18 0 0 Z " fill="#CBA378" transform="translate(386,233)"/>
<path d="M0 0 C3.2175 -0.04125 6.435 -0.0825 9.75 -0.125 C11.26158691 -0.15231201 11.26158691 -0.15231201 12.80371094 -0.18017578 C13.60583008 -0.1851709 14.40794922 -0.19016602 15.234375 -0.1953125 C16.05131836 -0.20578613 16.86826172 -0.21625977 17.70996094 -0.22705078 C20.25822419 0.02560219 21.84119819 0.63865265 24 2 C26.05481405 6.10962809 25.48677279 10.53341417 24.08984375 14.7421875 C22 17 22 17 19.97216797 17.39624023 C17.40161401 17.49395135 14.88190867 17.43467378 12.3125 17.3125 C11.41982422 17.28994141 10.52714844 17.26738281 9.60742188 17.24414062 C7.40423236 17.18523181 5.20190472 17.09555035 3 17 C3 20.3 3 23.6 3 27 C2.01 27 1.02 27 0 27 C0 18.09 0 9.18 0 0 Z M3 3 C3 6.96 3 10.92 3 15 C5.4178712 15.10826289 7.83087556 15.18739789 10.25 15.25 C10.93191406 15.28351563 11.61382812 15.31703125 12.31640625 15.3515625 C15.76113951 15.41845052 17.66259768 15.24039915 20.5 13.21875 C22.38051528 10.92645503 22.38051528 10.92645503 21.75 7.25 C21.5025 6.1775 21.255 5.105 21 4 C17.38132441 2.7937748 14.07493749 2.89183082 10.3125 2.9375 C9.61060547 2.94201172 8.90871094 2.94652344 8.18554688 2.95117188 C6.45699462 2.96293073 4.72848635 2.98086546 3 3 Z " fill="#B97A3F" transform="translate(288,233)"/>
<path d="M0 0 C-0.66386719 0.31710937 -1.32773438 0.63421875 -2.01171875 0.9609375 C-9.13798961 4.72693758 -12.17844269 8.48574737 -15 16 C-14.21625 15.505 -13.4325 15.01 -12.625 14.5 C-10 13 -10 13 -8 13 C-8 13.66 -8 14.32 -8 15 C-8.99 15.33 -9.98 15.66 -11 16 C-11.66 16.99 -12.32 17.98 -13 19 C-16.125 20.1875 -16.125 20.1875 -19 21 C-19.0825 22.11375 -19.165 23.2275 -19.25 24.375 C-19.4975 25.57125 -19.745 26.7675 -20 28 C-21.98 28.99 -21.98 28.99 -24 30 C-23.67 36.27 -23.34 42.54 -23 49 C-23.66 48.67 -24.32 48.34 -25 48 C-27.8221506 39.25133313 -26.01047837 30.02095673 -22 22 C-21.34 22 -20.68 22 -20 22 C-20 21.34 -20 20.68 -20 20 C-19.34 20 -18.68 20 -18 20 C-18.66 18.906875 -19.32 17.81375 -20 16.6875 C-21.58464929 14.06292462 -22 13.1743622 -22 10 C-19.525 10.99 -19.525 10.99 -17 12 C-16.67 11.34 -16.34 10.68 -16 10 C-15.34 10 -14.68 10 -14 10 C-14 9.01 -14 8.02 -14 7 C-13.34 7 -12.68 7 -12 7 C-11.67 5.68 -11.34 4.36 -11 3 C-10.01 3 -9.02 3 -8 3 C-8 2.01 -8 1.02 -8 0 C-4.90645403 -0.99435406 -3.09720845 -0.87840996 0 0 Z " fill="#C68648" transform="translate(219,265)"/>
<path d="M0 0 C0.99 0 1.98 0 3 0 C2.67 1.32 2.34 2.64 2 4 C7.61 4 13.22 4 19 4 C19 3.34 19 2.68 19 2 C19.99 2 20.98 2 22 2 C26 8.625 26 8.625 26 12 C25.01 12 24.02 12 23 12 C23 11.34 23 10.68 23 10 C22.34 10 21.68 10 21 10 C20.67 9.01 20.34 8.02 20 7 C16.89632503 6.85484323 13.79351973 6.76599147 10.6875 6.6875 C9.80642578 6.64560547 8.92535156 6.60371094 8.01757812 6.56054688 C5.58084657 6.51422118 3.38913457 6.51130024 1 7 C-0.98015185 9.39468525 -0.98015185 9.39468525 -2 12 C-2.99 12 -3.98 12 -5 12 C-4.35550393 8.98782888 -3.34977818 6.48344164 -1.9375 3.75 C-1.57527344 3.04359375 -1.21304688 2.3371875 -0.83984375 1.609375 C-0.56269531 1.07828125 -0.28554687 0.5471875 0 0 Z " fill="#C4854B" transform="translate(154,248)"/>
<path d="M0 0 C2.6875 0.375 2.6875 0.375 4.83984375 2.44140625 C7.15965121 6.12465235 7.09876039 8.37378465 6.9375 12.6875 C6.90140625 13.94175781 6.8653125 15.19601563 6.828125 16.48828125 C6.75851563 17.91720703 6.75851563 17.91720703 6.6875 19.375 C6.0275 19.375 5.3675 19.375 4.6875 19.375 C4.44 20.014375 4.1925 20.65375 3.9375 21.3125 C2.6875 23.375 2.6875 23.375 0.5625 24.125 C-0.365625 24.24875 -0.365625 24.24875 -1.3125 24.375 C-1.6425 23.385 -1.9725 22.395 -2.3125 21.375 C-1.4875 20.941875 -0.6625 20.50875 0.1875 20.0625 C3.60158352 16.39236022 3.20888582 13.78266849 3.15625 8.93359375 C2.61828944 5.99722569 2.00906319 5.17640162 -0.3125 3.375 C-1.3025 2.715 -2.2925 2.055 -3.3125 1.375 C-2.3125 0.375 -2.3125 0.375 0 0 Z " fill="#C6925E" transform="translate(139.3125,234.625)"/>
<path d="M0 0 C0.99 0 1.98 0 3 0 C3 4.29 3 8.58 3 13 C5.31 13 7.62 13 10 13 C7 15 7 15 3 15 C3 18.96 3 22.92 3 27 C2.01 27 1.02 27 0 27 C0 18.09 0 9.18 0 0 Z " fill="#C69361" transform="translate(386,233)"/>
<path d="M0 0 C0.33 0.66 0.66 1.32 1 2 C1.66 2.33 2.32 2.66 3 3 C2.01 3.33 1.02 3.66 0 4 C-1.15020525 6.24743756 -1.15020525 6.24743756 -2 9 C-2.37125 10.093125 -2.7425 11.18625 -3.125 12.3125 C-3.558125 13.6428125 -3.558125 13.6428125 -4 15 C-3.01 15 -2.02 15 -1 15 C-1.66 15.66 -2.32 16.32 -3 17 C-3.99 17 -4.98 17 -6 17 C-6.4021875 18.11375 -6.4021875 18.11375 -6.8125 19.25 C-7.95276751 21.89061949 -9.09380306 23.85552844 -11 26 C-11.66 26 -12.32 26 -13 26 C-12.67 24.68 -12.34 23.36 -12 22 C-11.34 22 -10.68 22 -10 22 C-9.06619039 17.46859347 -9.06619039 17.46859347 -10 13 C-8.35 12.67 -6.7 12.34 -5 12 C-5.66 10.35 -6.32 8.7 -7 7 C-5.68 7.33 -4.36 7.66 -3 8 C-3.66 6.35 -4.32 4.7 -5 3 C-4.01 2.34 -3.02 1.68 -2 1 C-2 1.66 -2 2.32 -2 3 C-1.34 3 -0.68 3 0 3 C0 2.01 0 1.02 0 0 Z " fill="#CA8A49" transform="translate(209,224)"/>
<path d="M0 0 C0.99 0 1.98 0 3 0 C3 0.99 3 1.98 3 3 C8.94 3 14.88 3 21 3 C21 3.66 21 4.32 21 5 C16.90996141 6.14982602 12.96822949 6.11094256 8.75 6.0625 C8.00492187 6.05798828 7.25984375 6.05347656 6.4921875 6.04882812 C4.6614236 6.03709246 2.83070127 6.0191585 1 6 C0.71382813 6.80824219 0.42765625 7.61648437 0.1328125 8.44921875 C-0.42792969 9.71185547 -0.42792969 9.71185547 -1 11 C-3.125 11.8125 -3.125 11.8125 -5 12 C-4.67 10.35 -4.34 8.7 -4 7 C-3.34 7 -2.68 7 -2 7 C-1.855625 6.401875 -1.71125 5.80375 -1.5625 5.1875 C-1.1127561 3.43849596 -0.57107659 1.71322977 0 0 Z " fill="#BD7E42" transform="translate(317,248)"/>
<path d="M0 0 C1.59220976 3.18441952 1.3976617 6.5337155 1 10 C-0.5 13 -0.5 13 -2 15 C-2.99 14.67 -3.98 14.34 -5 14 C-5.33 13.34 -5.66 12.68 -6 12 C-5.2575 11.4740625 -5.2575 11.4740625 -4.5 10.9375 C-2.28579794 8.48587017 -2.28579794 8.48587017 -3 2 C-9.27 2 -15.54 2 -22 2 C-22 1.34 -22 0.68 -22 0 C-19.08365878 -0.19502282 -16.16720455 -0.38129328 -13.25 -0.5625 C-12.0125 -0.64661133 -12.0125 -0.64661133 -10.75 -0.73242188 C-9.95078125 -0.78076172 -9.1515625 -0.82910156 -8.328125 -0.87890625 C-7.5949707 -0.9260376 -6.86181641 -0.97316895 -6.10644531 -1.02172852 C-3.87853472 -0.99874705 -2.10127368 -0.74174388 0 0 Z " fill="#CB975F" transform="translate(312,235)"/>
<path d="M0 0 C0.99 0 1.98 0 3 0 C3.30550781 0.96164063 3.61101562 1.92328125 3.92578125 2.9140625 C5.60636565 6.07767202 5.60636565 6.07767202 7.93505859 6.68261719 C10.35858144 7.04245955 12.74106233 7.24255558 15.1875 7.375 C16.03248047 7.44332031 16.87746094 7.51164062 17.74804688 7.58203125 C19.83018026 7.74671977 21.91500461 7.8767281 24 8 C23.67 8.66 23.34 9.32 23 10 C20.08234109 10.10806144 17.16868875 10.18732877 14.25 10.25 C13.425 10.28351563 12.6 10.31703125 11.75 10.3515625 C5.62885419 10.45029066 5.62885419 10.45029066 2.46875 8.1875 C0.64977664 5.47839073 0.29292489 3.22217376 0 0 Z " fill="#C6905F" transform="translate(78,250)"/>
<path d="M0 0 C2.20770805 -0.08165496 4.41630425 -0.13948488 6.625 -0.1875 C7.85476563 -0.22230469 9.08453125 -0.25710937 10.3515625 -0.29296875 C14.32482471 0.02608335 16.64288087 0.88826377 20 3 C22 6 22 6 22 10 C21.01 10 20.02 10 19 10 C18.67 8.68 18.34 7.36 18 6 C17.34 6 16.68 6 16 6 C16 5.34 16 4.68 16 4 C14.51886719 3.81824219 14.51886719 3.81824219 13.0078125 3.6328125 C11.72648437 3.46523437 10.44515625 3.29765625 9.125 3.125 C7.84882813 2.96257812 6.57265625 2.80015625 5.2578125 2.6328125 C2 2 2 2 0 0 Z " fill="#BC8E5F" transform="translate(357,233)"/>
<path d="M0 0 C0.99 0.33 1.98 0.66 3 1 C-0.75 4 -0.75 4 -3 4 C-3.33 4.99 -3.66 5.98 -4 7 C-5.99609375 7.625 -5.99609375 7.625 -8.4375 8 C-10.8428046 8.31571619 -10.8428046 8.31571619 -13 9 C-13.99 10.485 -13.99 10.485 -15 12 C-17.625 12.1875 -17.625 12.1875 -20 12 C-20 12.66 -20 13.32 -20 14 C-22.31 14.33 -24.62 14.66 -27 15 C-25.64890735 12.2978147 -24.21093549 11.98245232 -21.484375 10.72265625 C-20.56269531 10.29146484 -19.64101562 9.86027344 -18.69140625 9.41601562 C-17.23541016 8.74602539 -17.23541016 8.74602539 -15.75 8.0625 C-13.84786465 7.1807409 -11.94678779 6.29669414 -10.046875 5.41015625 C-8.77602051 4.82439819 -8.77602051 4.82439819 -7.47949219 4.22680664 C-4.91763048 3.01992916 -4.91763048 3.01992916 -2.37207031 1.28686523 C-1.58928711 0.86219971 -0.80650391 0.43753418 0 0 Z " fill="#CC9159" transform="translate(244,179)"/>
<path d="M0 0 C0.66 0.33 1.32 0.66 2 1 C2.05425013 3.87525669 2.09379277 6.74947646 2.125 9.625 C2.14175781 10.43324219 2.15851563 11.24148438 2.17578125 12.07421875 C2.21420986 16.80093815 1.82737094 20.55387702 0 25 C-0.92188461 22.23434618 -1.11785222 20.61716298 -1.09765625 17.76953125 C-1.09282227 16.56586914 -1.09282227 16.56586914 -1.08789062 15.33789062 C-1.07951172 14.50451172 -1.07113281 13.67113281 -1.0625 12.8125 C-1.05798828 11.96751953 -1.05347656 11.12253906 -1.04882812 10.25195312 C-1.03705403 8.16793845 -1.0191189 6.08396023 -1 4 C-3.31 4.33 -5.62 4.66 -8 5 C-5.45378681 2.99940392 -3.01962385 1.20784954 0 0 Z " fill="#D38B5A" transform="translate(270,248)"/>
<path d="M0 0 C0.99 0 1.98 0 3 0 C4.98 3.96 6.96 7.92 9 12 C7.68 12 6.36 12 5 12 C3.4375 9.625 3.4375 9.625 2 7 C1.01 6.34 0.02 5.68 -1 5 C0.32 5 1.64 5 3 5 C2.02667739 3.80658248 2.02667739 3.80658248 0.23413086 3.88647461 C-0.51473389 3.89171143 -1.26359863 3.89694824 -2.03515625 3.90234375 C-2.84404297 3.90556641 -3.65292969 3.90878906 -4.48632812 3.91210938 C-5.7615332 3.92467773 -5.7615332 3.92467773 -7.0625 3.9375 C-7.91650391 3.94201172 -8.77050781 3.94652344 -9.65039062 3.95117188 C-11.76695663 3.96299627 -13.88348685 3.98093231 -16 4 C-16 3.67 -16 3.34 -16 3 C-10.72 3 -5.44 3 0 3 C0 2.01 0 1.02 0 0 Z " fill="#DBB692" transform="translate(335,248)"/>
<path d="M0 0 C0.1173794 3.49971199 0.18763961 6.99890955 0.25 10.5 C0.28351563 11.48226562 0.31703125 12.46453125 0.3515625 13.4765625 C0.43537788 19.76271614 -0.12996713 24.85517113 -4 30 C-4.99 30.66 -5.98 31.32 -7 32 C-6.67 29.36 -6.34 26.72 -6 24 C-5.34 24 -4.68 24 -4 24 C-4 23.34 -4 22.68 -4 22 C-3.34 22 -2.68 22 -2 22 C-1.67 15.4 -1.34 8.8 -1 2 C-1.99 1.67 -2.98 1.34 -4 1 C-2 0 -2 0 0 0 Z " fill="#C58848" transform="translate(271,167)"/>
<path d="M0 0 C-0.66 3.3 -1.32 6.6 -2 10 C-2.99 9.67 -3.98 9.34 -5 9 C-5 8.34 -5 7.68 -5 7 C-5.66 7 -6.32 7 -7 7 C-10 3.53846154 -10 3.53846154 -10 1 C-3.375 0 -3.375 0 0 0 Z " fill="#C78545" transform="translate(206,314)"/>
<path d="M0 0 C-1.41042956 0.84384675 -2.82864132 1.67469496 -4.25 2.5 C-5.43335938 3.19609375 -5.43335938 3.19609375 -6.640625 3.90625 C-9 5 -9 5 -13 5 C-13 5.66 -13 6.32 -13 7 C-16.62197194 8.49140021 -20.27566618 9.7874262 -24 11 C-24 10.01 -24 9.02 -24 8 C-22.35 8 -20.7 8 -19 8 C-19 7.34 -19 6.68 -19 6 C-18.01 6 -17.02 6 -16 6 C-16 5.34 -16 4.68 -16 4 C-14.02 4 -12.04 4 -10 4 C-10 3.34 -10 2.68 -10 2 C-9.01 2 -8.02 2 -7 2 C-7 1.34 -7 0.68 -7 0 C-3.86650268 -1.04449911 -3.01031744 -0.93423645 0 0 Z " fill="#CD975E" transform="translate(243,253)"/>
<path d="M0 0 C2 1.3125 2 1.3125 4 3 C4 3.99 4 4.98 4 6 C4.66 6 5.32 6 6 6 C6.33 7.32 6.66 8.64 7 10 C6.34 10 5.68 10 5 10 C5 10.66 5 11.32 5 12 C-0.61 12 -6.22 12 -12 12 C-11.67 11.34 -11.34 10.68 -11 10 C-6.38 10 -1.76 10 3 10 C2.01 8.35 1.02 6.7 0 5 C-0.1875 2.1875 -0.1875 2.1875 0 0 Z " fill="#DCB895" transform="translate(168,240)"/>
<path d="M0 0 C3.37462715 0.54723683 5.08235 1.0549 8 3 C8.6875 6.625 8.6875 6.625 9 10 C8.01 10 7.02 10 6 10 C5.67 8.02 5.34 6.04 5 4 C2.03 3.67 -0.94 3.34 -4 3 C-2.68 2.67 -1.36 2.34 0 2 C0 1.34 0 0.68 0 0 Z " fill="#C89C6E" transform="translate(99,233)"/>
<path d="M0 0 C0.66 0 1.32 0 2 0 C1.49396008 2.16874252 1.00016187 3.99967627 0 6 C-0.66 6 -1.32 6 -2 6 C-1.95875 6.9075 -1.9175 7.815 -1.875 8.75 C-2.00167103 12.04344673 -2.54342539 13.17253164 -4 16 C-4.38749213 18.32495277 -4.72982839 20.65851268 -5 23 C-5.33 23 -5.66 23 -6 23 C-6.39755747 14.78381226 -5.70517826 6.40915912 0 0 Z " fill="#C48852" transform="translate(199,203)"/>
<path d="M0 0 C3 4.22222222 3 4.22222222 3 7 C-2.46785184 6.06265397 -6.67489836 4.52415689 -11 1 C-3.375 0 -3.375 0 0 0 Z " fill="#D09E6B" transform="translate(400,244)"/>
<path d="M0 0 C0.66 0.66 1.32 1.32 2 2 C-1.3 2.66 -4.6 3.32 -8 4 C-8.33 4.99 -8.66 5.98 -9 7 C-9.99 6.67 -10.98 6.34 -12 6 C-10.95902262 3.2556051 -10.02715813 2.0212861 -7.6875 0.1875 C-4.53571953 -1.20514718 -3.21379345 -1.12917067 0 0 Z " fill="#D1A77B" transform="translate(359,234)"/>
<path d="M0 0 C1.13480527 3.60993172 1.10015767 6.9842327 1.0625 10.75 C1.05347656 11.92046875 1.04445313 13.0909375 1.03515625 14.296875 C1.02355469 15.18890625 1.01195312 16.0809375 1 17 C0.34 17 -0.32 17 -1 17 C-2.95635423 11.4761763 -3.17320538 7.76825978 -2 2 C-1.34 1.34 -0.68 0.68 0 0 Z " fill="#CF9A72" transform="translate(348,239)"/>
<path d="M0 0 C1.44246094 0.14501953 1.44246094 0.14501953 2.9140625 0.29296875 C5.375 0.8125 5.375 0.8125 7.375 2.8125 C7.045 3.4725 6.715 4.1325 6.375 4.8125 C1.095 4.1525 -4.185 3.4925 -9.625 2.8125 C-5.34523996 -0.39732003 -4.92814626 -0.56454506 0 0 Z " fill="#D8AB77" transform="translate(97.625,245.1875)"/>
<path d="M0 0 C4.95 0 9.9 0 15 0 C15 0.66 15 1.32 15 2 C10.38 2.33 5.76 2.66 1 3 C0.67 2.01 0.34 1.02 0 0 Z " fill="#BE956E" transform="translate(84,233)"/>
<path d="M0 0 C-1.01320312 0.56267578 -1.01320312 0.56267578 -2.046875 1.13671875 C-8.89281665 5.05783964 -8.89281665 5.05783964 -14 11 C-14 9.68 -14 8.36 -14 7 C-13.34 7 -12.68 7 -12 7 C-11.67 5.68 -11.34 4.36 -11 3 C-10.01 3 -9.02 3 -8 3 C-8 2.01 -8 1.02 -8 0 C-4.90645403 -0.99435406 -3.09720845 -0.87840996 0 0 Z " fill="#CF965E" transform="translate(219,265)"/>
<path d="M0 0 C0.66 0.33 1.32 0.66 2 1 C-0.17220355 3.73277221 -1.85827965 5.72888915 -5.3359375 6.5546875 C-7.56274452 6.78650022 -9.76217118 6.94637012 -12 7 C-8.44008172 4.03340143 -4.34777457 1.618652 0 0 Z " fill="#C48547" transform="translate(260,253)"/>
<path d="M0 0 C0 0.66 0 1.32 0 2 C-0.66 2 -1.32 2 -2 2 C-2.2475 2.639375 -2.495 3.27875 -2.75 3.9375 C-4 6 -4 6 -6.125 6.75 C-7.053125 6.87375 -7.053125 6.87375 -8 7 C-8.33 6.01 -8.66 5.02 -9 4 C-4.5 0 -4.5 0 0 0 Z " fill="#D2A97D" transform="translate(146,252)"/>
<path d="M0 0 C2.91227269 3.28804981 4.49701212 5.59885603 5 10 C4.01 10 3.02 10 2 10 C2 9.34 2 8.68 2 8 C1.34 8 0.68 8 0 8 C-0.79953138 4.71303767 -1.09658936 3.28976808 0 0 Z " fill="#CCA983" transform="translate(175,250)"/>
<path d="M0 0 C3.03869411 1.51934706 3.64410306 3.98004772 5 7 C5 7.66 5 8.32 5 9 C4.34 9 3.68 9 3 9 C2.67 9.66 2.34 10.32 2 11 C-1.07692308 4.6 -1.07692308 4.6 -0.6875 1.5625 C-0.460625 1.046875 -0.23375 0.53125 0 0 Z " fill="#D1A36E" transform="translate(332,239)"/>
<path d="M0 0 C0 0.99 0 1.98 0 3 C-2.66666667 4.33333333 -5.33333333 5.66666667 -8 7 C-8 6.34 -8 5.68 -8 5 C-8.66 4.67 -9.32 4.34 -10 4 C-8.71086513 3.32845067 -7.41859796 2.66291141 -6.125 2 C-5.40570313 1.62875 -4.68640625 1.2575 -3.9453125 0.875 C-2 0 -2 0 0 0 Z " fill="#C57F3B" transform="translate(244,262)"/>
<path d="M0 0 C1.875 0.3125 1.875 0.3125 4 1 C6 4 6 4 5.625 6.6875 C5.41875 7.450625 5.2125 8.21375 5 9 C4.67 8.01 4.34 7.02 4 6 C3.34 6 2.68 6 2 6 C2 5.34 2 4.68 2 4 C1.34 4 0.68 4 0 4 C0 2.68 0 1.36 0 0 Z " fill="#CB955F" transform="translate(326,233)"/>
<path d="M0 0 C1.32 0.33 2.64 0.66 4 1 C2.2335343 2.0076952 0.46166177 3.00591714 -1.3125 4 C-2.79169922 4.8353125 -2.79169922 4.8353125 -4.30078125 5.6875 C-7 7 -7 7 -10 7 C-10 6.34 -10 5.68 -10 5 C-3.375 2 -3.375 2 0 2 C0 1.34 0 0.68 0 0 Z " fill="#CC935B" transform="translate(252,204)"/>
<path d="M0 0 C0 0.66 0 1.32 0 2 C-7.42857143 5.28571429 -7.42857143 5.28571429 -11 6 C-11 4.68 -11 3.36 -11 2 C-3.375 0 -3.375 0 0 0 Z " fill="#C6894D" transform="translate(228,299)"/>
<path d="M0 0 C-0.33 0.66 -0.66 1.32 -1 2 C-2.65 2 -4.3 2 -6 2 C-6 2.66 -6 3.32 -6 4 C-8.31 4.33 -10.62 4.66 -13 5 C-11.74922363 2.49844727 -10.64972695 2.07787452 -8.1875 0.8125 C-7.50042969 0.44769531 -6.81335938 0.08289063 -6.10546875 -0.29296875 C-3.64003451 -1.12087895 -2.41707906 -0.85276722 0 0 Z " fill="#C88A52" transform="translate(230,189)"/>
<path d="M0 0 C0.66 0 1.32 0 2 0 C1.67 1.32 1.34 2.64 1 4 C-4.94 3.67 -10.88 3.34 -17 3 C-17 2.67 -17 2.34 -17 2 C-11.39 2 -5.78 2 0 2 C0 1.34 0 0.68 0 0 Z " fill="#B47234" transform="translate(173,250)"/>
<path d="M0 0 C2 1 2 1 3 3 C1.35 3 -0.3 3 -2 3 C-2 3.66 -2 4.32 -2 5 C-4.31 5.33 -6.62 5.66 -9 6 C-7.73295613 3.46591226 -6.56876843 3.06790028 -4.0625 1.8125 C-3.35222656 1.44769531 -2.64195312 1.08289063 -1.91015625 0.70703125 C-1.27980469 0.47371094 -0.64945313 0.24039062 0 0 Z " fill="#D19860" transform="translate(221,272)"/>
<path d="M0 0 C0.66 0 1.32 0 2 0 C1.67 2.64 1.34 5.28 1 8 C0.34 8 -0.32 8 -1 8 C-1.33 8.99 -1.66 9.98 -2 11 C-2.33 9.68 -2.66 8.36 -3 7 C-2.34 7 -1.68 7 -1 7 C-1.020625 6.030625 -1.04125 5.06125 -1.0625 4.0625 C-1 1 -1 1 0 0 Z " fill="#C17B3B" transform="translate(268,268)"/>
<path d="M0 0 C0.99 0 1.98 0 3 0 C2.50168276 3.68754757 1.89932357 5.60490662 -1 8 C-2.2077558 4.37673261 -1.54311128 3.35853631 0 0 Z " fill="#CC9A6A" transform="translate(376,249)"/>
<path d="M0 0 C0.66 0.33 1.32 0.66 2 1 C-2.18461538 5.92307692 -2.18461538 5.92307692 -6.3125 6.3125 C-7.199375 6.209375 -8.08625 6.10625 -9 6 C-7.73295613 3.46591226 -6.56876843 3.06790028 -4.0625 1.8125 C-3.35222656 1.44769531 -2.64195312 1.08289063 -1.91015625 0.70703125 C-1.27980469 0.47371094 -0.64945313 0.24039063 0 0 Z " fill="#CC9255" transform="translate(224,229)"/>
<path d="M0 0 C1.76932052 2.65398078 2.30812873 4.0348374 3 7 C3.33 7.33 3.66 7.66 4 8 C3.67 8.99 3.34 9.98 3 11 C2.34 10.67 1.68 10.34 1 10 C0.67 10.66 0.34 11.32 0 12 C0 8.04 0 4.08 0 0 Z " fill="#C26F21" transform="translate(194,219)"/>
<path d="M0 0 C0.66 0 1.32 0 2 0 C4 3 4 3 4 7 C3.01 7 2.02 7 1 7 C0.87625 6.360625 0.7525 5.72125 0.625 5.0625 C0.315625 4.0415625 0.315625 4.0415625 0 3 C-0.66 2.67 -1.32 2.34 -2 2 C-1.34 2 -0.68 2 0 2 C0 1.34 0 0.68 0 0 Z " fill="#CEA47A" transform="translate(375,236)"/>
<path d="M0 0 C0 0.66 0 1.32 0 2 C0.99 2.33 1.98 2.66 3 3 C2.34 4.32 1.68 5.64 1 7 C-0.98 5.35 -2.96 3.7 -5 2 C-2 0 -2 0 0 0 Z " fill="#D8AE7F" transform="translate(405,250)"/>
<path d="M0 0 C0.66 0 1.32 0 2 0 C2 3.63 2 7.26 2 11 C0.68 11.33 -0.64 11.66 -2 12 C-2.33 11.01 -2.66 10.02 -3 9 C-2.505 8.62875 -2.01 8.2575 -1.5 7.875 C0.59755514 5.25305607 0.21743835 3.26157528 0 0 Z " fill="#E2B68F" transform="translate(309,238)"/>
<path d="M0 0 C0 1.32 0 2.64 0 4 C-4.455 4.495 -4.455 4.495 -9 5 C-4 0 -4 0 0 0 Z " fill="#CB9056" transform="translate(216,194)"/>
<path d="M0 0 C0.66 0.99 1.32 1.98 2 3 C1.125 5.6875 1.125 5.6875 0 8 C-0.99 8 -1.98 8 -3 8 C-2.67 6.35 -2.34 4.7 -2 3 C-1.34 3 -0.68 3 0 3 C0 2.01 0 1.02 0 0 Z " fill="#CDAA84" transform="translate(315,252)"/>
<path d="M0 0 C-3.1254959 2.64465038 -6.08788267 3.84414715 -10 5 C-10.33 4.34 -10.66 3.68 -11 3 C-7.14243493 0.84694043 -4.44870215 -0.39253254 0 0 Z " fill="#CF945D" transform="translate(226,219)"/>
<path d="M0 0 C2.29013653 3.4352048 2.17842973 4.985331 2 9 C1.34 9 0.68 9 0 9 C-1.36623674 6.26752652 -1.128426 4.01801098 -1 1 C-0.67 0.67 -0.34 0.34 0 0 Z " fill="#C76303" transform="translate(196,215)"/>
<path d="M0 0 C0 0.66 0 1.32 0 2 C-2.30276574 4.21747812 -3.52480092 4.96760006 -6.75 5.1875 C-7.86375 5.0946875 -7.86375 5.0946875 -9 5 C-9 4.34 -9 3.68 -9 3 C-2.25 0 -2.25 0 0 0 Z " fill="#CA9760" transform="translate(261,172)"/>
<path d="M0 0 C1.98 0 3.96 0 6 0 C4.71567636 2.56864728 3.63365249 2.946539 1 4 C-0.32 4 -1.64 4 -3 4 C-3 3.34 -3 2.68 -3 2 C-2.01 2 -1.02 2 0 2 C0 1.34 0 0.68 0 0 Z " fill="#CC8F55" transform="translate(235,293)"/>
<path d="M0 0 C1.32 0 2.64 0 4 0 C4 0.66 4 1.32 4 2 C-1.75 5 -1.75 5 -4 5 C-4.33 4.01 -4.66 3.02 -5 2 C-3.35 2 -1.7 2 0 2 C0 1.34 0 0.68 0 0 Z " fill="#CB8D4D" transform="translate(256,243)"/>
<path d="M0 0 C1.98 0 3.96 0 6 0 C5 2 5 2 2.93359375 2.8515625 C1.69802734 3.23441406 1.69802734 3.23441406 0.4375 3.625 C-0.80193359 4.01558594 -0.80193359 4.01558594 -2.06640625 4.4140625 C-2.70449219 4.60742188 -3.34257812 4.80078125 -4 5 C-4 4.34 -4 3.68 -4 3 C-2.68 3 -1.36 3 0 3 C0 2.01 0 1.02 0 0 Z " fill="#D09555" transform="translate(236,211)"/>
<path d="M0 0 C0.66 0 1.32 0 2 0 C2 1.65 2 3.3 2 5 C1.34 5 0.68 5 0 5 C-0.103125 5.639375 -0.20625 6.27875 -0.3125 6.9375 C-0.539375 7.618125 -0.76625 8.29875 -1 9 C-1.99 9.33 -2.98 9.66 -4 10 C-3.67 8.68 -3.34 7.36 -3 6 C-2.34 6 -1.68 6 -1 6 C-1 5.34 -1 4.68 -1 4 C-0.34 4 0.32 4 1 4 C0.67 2.68 0.34 1.36 0 0 Z " fill="#D49D6C" transform="translate(200,281)"/>
<path d="M0 0 C0 0.66 0 1.32 0 2 C-1.98 2.66 -3.96 3.32 -6 4 C-6 3.67 -6 3.34 -6 3 C-7.65 2.67 -9.3 2.34 -11 2 C-11 1.67 -11 1.34 -11 1 C-7.27569643 0.30710631 -3.78916254 -0.11144596 0 0 Z " fill="#DCBB97" transform="translate(107,256)"/>
<path d="M0 0 C0.99 0.33 1.98 0.66 3 1 C1.625 3.5 1.625 3.5 0 6 C-0.66 6 -1.32 6 -2 6 C-2.33 6.66 -2.66 7.32 -3 8 C-3 6.68 -3 5.36 -3 4 C-2.34 4 -1.68 4 -1 4 C-0.67 2.68 -0.34 1.36 0 0 Z " fill="#CA8E4F" transform="translate(265,235)"/>
<path d="M0 0 C1.65 0.33 3.3 0.66 5 1 C4.67 1.99 4.34 2.98 4 4 C1.36 3.67 -1.28 3.34 -4 3 C-2.68 2.67 -1.36 2.34 0 2 C0 1.34 0 0.68 0 0 Z " fill="#E5BC93" transform="translate(99,233)"/>
<path d="M0 0 C2 3 2 3 1.625 5.1875 C1.41875 5.785625 1.2125 6.38375 1 7 C0.01 7 -0.98 7 -2 7 C-1.42415568 4.61435923 -0.77772405 2.33317216 0 0 Z " fill="#D5AC83" transform="translate(151,253)"/>
<path d="M0 0 C0.98120464 3.05263664 0.98120464 4.94736336 0 8 C-0.66 8 -1.32 8 -2 8 C-2.125 5.125 -2.125 5.125 -2 2 C-1.34 1.34 -0.68 0.68 0 0 Z " fill="#BB7738" transform="translate(348,239)"/>
<path d="M0 0 C0.66 0 1.32 0 2 0 C1.43628586 3.26954202 0.50037734 4.82575883 -2 7 C-2.33 6.01 -2.66 5.02 -3 4 C-1.6875 1.8125 -1.6875 1.8125 0 0 Z " fill="#D4A26B" transform="translate(199,203)"/>
</svg>
